#!OML:ASF F:\VICON\USERDATA\INSTALL\rory3\rory3.ASF
:FULLY-SPECIFIED
:DEGREES
824
root -3.04716 17.932 7.7456 181.363 58.4504 181.335
lowerback 7.20256 2.53842 -4.01918
upperback 2.36427 3.22789 2.14501
thorax -1.92949 1.64943 4.18747
lowerneck -15.912 -4.67714 -11.5879
upperneck 38.9532 -2.21183 4.06958
head 17.1978 -1.28436 3.72662
rclavicle -7.7526e-015 -1.15295e-014
rhumerus -40.5194 21.6434 -98.5449
rradius 88.692
rwrist -8.89314
rhand -18.2688 14.9176
rfingers 7.12502
rthumb 8.01091 -14.9106
lclavicle -7.7526e-015 -1.15295e-014
lhumerus -39.8196 -27.8029 104.326
lradius 81.2514
lwrist 6.27097
lhand -26.8867 22.3357
lfingers 7.12502
lthumb -0.310656 52.3152
rfemur -17.2504 1.21817 25.9923
rtibia 26.5339
rfoot -6.89513 2.22027
rtoes 7.02773
lfemur 7.34133 9.97274 -16.6197
ltibia 31.0301
lfoot 29.4555 -26.0756
ltoes 22.4532
825
root -2.94656 17.9423 7.69334 182.049 57.9959 182.05
lowerback 7.21524 2.65095 -3.63396
upperback 2.22576 3.40183 2.18423
thorax -2.0793 1.74005 3.98949
lowerneck -15.5332 -4.82471 -11.2381
upperneck 38.7938 -2.51901 3.86159
head 17.0336 -1.37609 3.50412
rclavicle -3.7123e-014 2.78299e-015
rhumerus -40.6376 21.303 -98.558
rradius 88.9319
rwrist -8.59008
rhand -18.0872 14.8175
rfingers 7.12502
rthumb 8.18616 -15.0039
lclavicle -3.7123e-014 2.78299e-015
lhumerus -40.028 -28.3804 104.429
lradius 81.1984
lwrist 6.00034
lhand -26.8994 22.4186
lfingers 7.12502
lthumb -0.322963 52.3981
rfemur -16.6571 1.20185 26.4721
rtibia 26.0241
rfoot -7.01516 1.70486
rtoes 5.64284
lfemur 5.91703 9.7361 -15.9443
ltibia 33.1381
lfoot 30.9687 -27.2768
ltoes 21.3796
826
root -2.84223 17.9507 7.63404 182.421 57.794 182.454
lowerback 7.31668 2.74611 -3.55706
upperback 1.97588 3.52759 2.29845
thorax -2.40972 1.81112 4.04093
lowerneck -15.1041 -4.90273 -11.1124
upperneck 38.8495 -2.62587 3.71207
head 16.9622 -1.40661 3.40005
rclavicle 3.73218e-014 -7.55382e-015
rhumerus -41.0822 21.3222 -98.6388
rradius 89.1019
rwrist -8.36973
rhand -17.9297 14.8195
rfingers 7.12502
rthumb 8.33815 -14.9959
lclavicle 3.73218e-014 -7.55382e-015
lhumerus -40.524 -28.6648 104.732
lradius 81.2361
lwrist 6.13693
lhand -27.1771 22.4106
lfingers 7.12502
lthumb -0.591119 52.3896
rfemur -15.9904 1.18029 26.7326
rtibia 25.5459
rfoot -7.19486 1.50912
rtoes 5.30118
lfemur 4.66924 9.65014 -15.5474
ltibia 35.1591
lfoot 31.0431 -28.4641
ltoes 20.3726
827
root -2.7339 17.965 7.56887 182.774 57.7437 182.858
lowerback 7.04198 2.84114 -3.30405
upperback 2.05044 3.68346 2.34573
thorax -2.18289 1.8835 3.94645
lowerneck -15.2254 -4.95026 -10.9617
upperneck 38.9359 -2.68946 3.6355
head 17.0406 -1.41876 3.33138
rclavicle -6.08778e-014 1.43125e-014
rhumerus -40.8891 21.3736 -98.535
rradius 89.0561
rwrist -8.23786
rhand -17.6834 15.0197
rfingers 7.12502
rthumb 8.57583 -14.7862
lclavicle -6.08778e-014 1.43125e-014
lhumerus -40.4287 -29.1152 104.664
lradius 81.3196
lwrist 6.42716
lhand -27.4056 22.6112
lfingers 7.12502
lthumb -0.811823 52.5894
rfemur -15.3099 1.32943 26.9644
rtibia 25.1316
rfoot -7.34293 1.28525
rtoes 5.84899
lfemur 3.51295 9.60501 -15.1901
ltibia 37.0697
lfoot 30.15 -29.4722
ltoes 18.724
828
root -2.63308 17.9731 7.505 183.183 57.4669 183.387
lowerback 7.01411 2.89673 -3.11529
upperback 1.99377 3.77975 2.55819
thorax -2.23773 1.93455 4.05112
lowerneck -15.0877 -5.00473 -11.0397
upperneck 38.9981 -2.70082 3.56738
head 17.0455 -1.43536 3.31736
rclavicle -1.92821e-014 1.19271e-015
rhumerus -41.0413 21.636 -98.3425
rradius 89.1377
rwrist -8.33159
rhand -17.6784 15.0558
rfingers 7.12502
rthumb 8.58073 -14.7499
lclavicle -1.92821e-014 1.19271e-015
lhumerus -40.4681 -29.245 104.893
lradius 81.3285
lwrist 6.42891
lhand -27.2035 22.8467
lfingers 7.12502
lthumb -0.61664 52.8256
rfemur -14.6318 1.29972 27.2929
rtibia 24.7721
rfoot -7.52969 1.0483
rtoes 5.30525
lfemur 2.3782 9.41808 -14.7313
ltibia 38.9219
lfoot 28.5797 -30.1069
ltoes 17.5194
829
root -2.53379 17.9805 7.4459 183.505 57.2416 183.805
lowerback 7.40981 2.84959 -3.68633
upperback 1.59915 3.6875 3.17422
thorax -2.9343 1.91693 4.99824
lowerneck -14.6804 -4.93569 -11.3751
upperneck 39.2011 -2.27564 3.14957
head 17.0247 -1.34855 3.27933
rclavicle 6.43565e-014 1.07344e-014
rhumerus -41.9369 22.7414 -98.1317
rradius 89.3194
rwrist -8.47059
rhand -17.8089 14.9337
rfingers 7.12502
rthumb 8.45477 -14.877
lclavicle 6.43565e-014 1.07344e-014
lhumerus -40.9631 -28.1984 105.626
lradius 81.3362
lwrist 6.18882
lhand -26.9374 22.5728
lfingers 7.12502
lthumb -0.359629 52.5522
rfemur -13.9938 1.35077 27.5676
rtibia 24.4469
rfoot -7.75799 0.776202
rtoes 4.47395
lfemur 1.25014 9.28104 -14.3279
ltibia 40.7047
lfoot 26.4712 -30.2693
ltoes 16.2277
830
root -2.4361 17.9857 7.38833 183.79 56.9748 184.162
lowerback 7.25285 3.01165 -3.24839
upperback 1.6874 3.93846 3.08347
thorax -2.74909 2.03311 4.63695
lowerneck -14.7247 -5.14965 -11.2884
upperneck 39.1209 -2.63925 3.14983
head 17.0272 -1.48485 3.19257
rclavicle -1.07046e-013 -1.39149e-014
rhumerus -41.6119 22.5118 -97.9732
rradius 89.3517
rwrist -8.4271
rhand -17.7544 14.9926
rfingers 7.12502
rthumb 8.50735 -14.816
lclavicle -1.07046e-013 -1.39149e-014
lhumerus -40.7322 -28.8543 105.445
lradius 81.3546
lwrist 6.40072
lhand -27.0727 22.3043
lfingers 7.12502
lthumb -0.490326 52.2835
rfemur -13.4038 1.43796 27.8113
rtibia 24.1462
rfoot -7.96687 0.463041
rtoes 4.46025
lfemur 0.0751097 9.29832 -13.9262
ltibia 42.4213
lfoot 24.0263 -30.3698
ltoes 14.1331
831
root -2.33678 17.9935 7.33037 183.799 56.8776 184.069
lowerback 6.79224 3.18121 -2.97296
upperback 1.87168 4.18278 2.83261
thorax -2.28982 2.13984 4.22375
lowerneck -14.8332 -5.29769 -11.2214
upperneck 39.0129 -2.96125 3.3041
head 17.0273 -1.58931 3.18498
rclavicle 4.45278e-014 -2.66371e-014
rhumerus -41.0555 22.2843 -97.8942
rradius 89.3185
rwrist -8.41988
rhand -17.6534 15.041
rfingers 7.12502
rthumb 8.6048 -14.7636
lclavicle 4.45278e-014 -2.66371e-014
lhumerus -40.2606 -29.5817 104.979
lradius 81.3607
lwrist 6.59682
lhand -27.2485 22.2727
lfingers 7.12502
lthumb -0.660142 52.2514
rfemur -12.9212 1.65788 27.7706
rtibia 23.8498
rfoot -8.11726 0.155107
rtoes 4.07158
lfemur -1.14977 9.57597 -13.8726
ltibia 44.008
lfoot 21.3069 -30.0602
ltoes 12.1739
832
root -2.23369 18.0042 7.2787 184.082 57.4873 184.1
lowerback 6.41207 3.51185 -3.17961
upperback 1.78952 4.60953 2.78289
thorax -2.21687 2.35095 4.26509
lowerneck -14.6855 -5.31706 -11.3018
upperneck 39.0161 -3.06897 3.56128
head 17.0097 -1.604 3.29925
rclavicle -9.10434e-014 -5.56597e-015
rhumerus -40.9797 22.4522 -97.9148
rradius 89.2718
rwrist -8.39378
rhand -17.3365 15.0275
rfingers 7.12502
rthumb 8.91062 -14.7643
lclavicle -9.10434e-014 -5.56597e-015
lhumerus -40.2149 -29.6958 104.762
lradius 81.4283
lwrist 6.64616
lhand -27.1157 22.2083
lfingers 7.12502
lthumb -0.531878 52.1873
rfemur -12.6259 2.2435 27.7801
rtibia 23.585
rfoot -8.27086 0.132391
rtoes 3.66882
lfemur -2.41317 10.4968 -13.8344
ltibia 45.4885
lfoot 18.7631 -28.8247
ltoes 12.9477
833
root -2.12615 18.0178 7.23187 184.714 58.6298 184.605
lowerback 5.95609 4.02693 -3.30895
upperback 1.78651 5.29577 2.80643
thorax -2.04844 2.69028 4.32605
lowerneck -14.6085 -5.31976 -11.1664
upperneck 38.9513 -3.13615 3.5822
head 16.9552 -1.60517 3.27068
rclavicle -1.00237e-013 -2.34566e-014
rhumerus -40.8693 22.7616 -97.9505
rradius 89.3057
rwrist -8.49195
rhand -17.1837 14.8377
rfingers 7.12502
rthumb 9.05804 -14.9479
lclavicle -1.00237e-013 -2.34566e-014
lhumerus -40.0247 -29.7805 104.487
lradius 81.4165
lwrist 6.69275
lhand -27.0421 21.9331
lfingers 7.12502
lthumb -0.460755 51.9123
rfemur -12.2737 3.09041 28.0223
rtibia 23.3401
rfoot -8.47118 0.407568
rtoes 3.7624
lfemur -3.48293 11.9145 -13.5054
ltibia 46.8479
lfoot 16.208 -27.6729
ltoes 12.8464
834
root -2.04059 18.0242 7.16033 184.229 57.3093 184.408
lowerback 6.65019 3.61703 -3.23452
upperback 1.51295 4.74129 2.88769
thorax -2.66251 2.42861 4.36692
lowerneck -14.3228 -5.2109 -11.0107
upperneck 39.0922 -2.83723 3.19086
head 16.9183 -1.49727 3.13156
rclavicle -3.8266e-015 1.11319e-014
rhumerus -41.4217 23.3469 -98.1678
rradius 89.3802
rwrist -8.53902
rhand -17.219 14.772
rfingers 7.12502
rthumb 9.02407 -15.015
lclavicle -3.8266e-015 1.11319e-014
lhumerus -40.4735 -29.1753 104.644
lradius 81.4509
lwrist 6.38557
lhand -28.6363 21.4524
lfingers 7.12502
lthumb -2.0005 51.4227
rfemur -11.38 2.37013 28.0258
rtibia 23.0622
rfoot -8.7549 -0.393584
rtoes 3.30657
lfemur -4.54019 11.1605 -13.3372
ltibia 48.1402
lfoot 13.9004 -26.7611
ltoes 11.0566
835
root -1.94906 18.0291 7.0919 183.818 56.644 184.17
lowerback 6.91547 3.46507 -3.23925
upperback 1.42183 4.53158 2.87071
thorax -2.88227 2.32886 4.35508
lowerneck -14.2217 -5.20283 -11.048
upperneck 39.2426 -2.74049 3.09912
head 16.9676 -1.4661 3.12377
rclavicle 1.53064e-014 -2.70347e-014
rhumerus -41.6117 23.7167 -98.3106
rradius 89.394
rwrist -8.5521
rhand -17.2444 14.8353
rfingers 7.12502
rthumb 8.99948 -14.9527
lclavicle 1.53064e-014 -2.70347e-014
lhumerus -40.6699 -28.865 104.68
lradius 81.4675
lwrist 5.92686
lhand -31.2171 19.7878
lfingers 7.12502
lthumb -4.49276 49.7201
rfemur -10.5795 2.03877 27.9409
rtibia 22.8098
rfoot -9.06703 -0.849904
rtoes 3.36713
lfemur -5.52085 10.9977 -13.2932
ltibia 49.3005
lfoot 11.3268 -25.5992
ltoes 8.60152
836
root -1.85876 18.0375 7.02677 184.015 56.102 184.254
lowerback 6.50823 3.45227 -2.68482
upperback 1.55651 4.55076 2.61174
thorax -2.45407 2.32258 3.80166
lowerneck -14.4755 -5.35672 -11.1473
upperneck 39.3196 -3.0786 3.5075
head 17.1192 -1.56726 3.26778
rclavicle 9.06458e-014 -2.38542e-015
rhumerus -41.0358 23.625 -98.3196
rradius 89.3475
rwrist -8.56914
rhand -17.0963 14.8587
rfingers 7.12502
rthumb 9.14239 -14.9231
lclavicle 9.06458e-014 -2.38542e-015
lhumerus -40.2266 -29.2278 104.185
lradius 81.445
lwrist 5.6579
lhand -30.5206 18.8502
lfingers 7.12502
lthumb -3.82021 48.7957
rfemur -10.1841 1.84422 28.0399
rtibia 22.6116
rfoot -9.42791 -1.21807
rtoes 3.37456
lfemur -6.84799 10.9447 -13.1758
ltibia 50.2767
lfoot 9.0798 -24.0779
ltoes 6.51188
837
root -1.76829 18.0464 6.96403 184.118 55.8402 184.234
lowerback 6.16597 3.53812 -2.383
upperback 1.64585 4.68183 2.40751
thorax -2.14189 2.37882 3.43354
lowerneck -14.6077 -5.4239 -10.9415
upperneck 39.2659 -3.27449 3.57242
head 17.1344 -1.60916 3.22139
rclavicle 4.2689e-014 2.38542e-014
rhumerus -40.5836 23.6435 -98.286
rradius 89.3339
rwrist -8.50999
rhand -16.9618 15.0366
rfingers 7.12502
rthumb 9.27219 -14.7395
lclavicle 4.2689e-014 2.38542e-014
lhumerus -39.8922 -29.3377 103.816
lradius 81.4817
lwrist 5.41888
lhand -26.1699 20.7417
lfingers 7.12502
lthumb 0.381662 50.7211
rfemur -9.79488 1.73543 28.0515
rtibia 22.4392
rfoot -9.72034 -1.41826
rtoes 3.51674
lfemur -8.09707 11.1339 -13.1708
ltibia 51.1636
lfoot 7.02594 -22.4134
ltoes 5.02933
838
root -1.65175 18.0421 6.93605 184.026 58.6033 184.734
lowerback 6.32393 4.69027 -2.92961
upperback 1.9256 6.18391 2.42405
thorax -2.11707 3.12912 3.61208
lowerneck -14.6851 -5.48336 -10.6765
upperneck 39.2259 -3.40424 3.45539
head 17.1307 -1.63812 3.09438
rclavicle 8.69683e-015 -7.55382e-015
rhumerus -40.2724 23.7187 -98.2761
rradius 89.3087
rwrist -8.3289
rhand -17.1621 15.0765
rfingers 7.12502
rthumb 9.07897 -14.7081
lclavicle 8.69683e-015 -7.55382e-015
lhumerus -39.7321 -29.4081 103.587
lradius 81.5429
lwrist 5.28731
lhand -26.8975 21.1073
lfingers 7.12502
lthumb -0.321047 51.0868
rfemur -8.63205 3.4245 28.2235
rtibia 22.28
rfoot -9.98524 -0.465223
rtoes 3.45626
lfemur -7.75113 13.996 -12.7443
ltibia 51.8363
lfoot 4.51903 -20.7353
ltoes 2.52572
